<svg width="177" height="48" viewBox="0 0 177 48" fill="none" xmlns="http://www.w3.org/2000/svg">
<rect width="177" height="48" rx="24" fill="#FFC268"/>
<path d="M34 18.1667V29.8333" stroke="black" stroke-width="0.916667" stroke-linecap="round" stroke-linejoin="round"/>
<path d="M28.1667 24H39.8333" stroke="black" stroke-width="0.916667" stroke-linecap="round" stroke-linejoin="round"/>
<path d="M54.2097 29H52.579L56.2431 18.8182H58.0179L61.682 29H60.0513L57.1727 20.6676H57.0932L54.2097 29ZM54.4831 25.0128H59.7729V26.3054H54.4831V25.0128ZM65.3486 29.1491C64.7321 29.1491 64.182 28.9917 63.698 28.6768C63.2175 28.3587 62.8396 27.9062 62.5645 27.3196C62.2927 26.7296 62.1569 26.022 62.1569 25.1967C62.1569 24.3714 62.2944 23.6655 62.5695 23.0788C62.8479 22.4922 63.2291 22.0431 63.713 21.7315C64.1969 21.42 64.7454 21.2642 65.3586 21.2642C65.8325 21.2642 66.2137 21.3438 66.502 21.5028C66.7937 21.6586 67.0191 21.8409 67.1782 22.0497C67.3406 22.2585 67.4665 22.4425 67.556 22.6016H67.6455V18.8182H69.132V29H67.6803V27.8118H67.556C67.4665 27.9742 67.3373 28.1598 67.1682 28.3686C67.0025 28.5774 66.7738 28.7597 66.4821 28.9155C66.1905 29.0713 65.8126 29.1491 65.3486 29.1491ZM65.6767 27.8814C66.1043 27.8814 66.4656 27.7687 66.7606 27.5433C67.0588 27.3146 67.2842 26.9981 67.4367 26.5938C67.5925 26.1894 67.6704 25.7187 67.6704 25.1818C67.6704 24.6515 67.5941 24.1875 67.4417 23.7898C67.2892 23.392 67.0655 23.0821 66.7705 22.8601C66.4755 22.638 66.1109 22.527 65.6767 22.527C65.2293 22.527 64.8564 22.643 64.5581 22.875C64.2598 23.107 64.0345 23.4235 63.882 23.8246C63.7329 24.2256 63.6583 24.678 63.6583 25.1818C63.6583 25.6922 63.7345 26.1513 63.887 26.5589C64.0394 26.9666 64.2648 27.2898 64.5631 27.5284C64.8647 27.7637 65.2359 27.8814 65.6767 27.8814ZM73.6923 29.1491C73.0758 29.1491 72.5256 28.9917 72.0417 28.6768C71.5611 28.3587 71.1833 27.9062 70.9082 27.3196C70.6364 26.7296 70.5005 26.022 70.5005 25.1967C70.5005 24.3714 70.6381 23.6655 70.9132 23.0788C71.1916 22.4922 71.5727 22.0431 72.0566 21.7315C72.5405 21.42 73.0891 21.2642 73.7022 21.2642C74.1762 21.2642 74.5573 21.3438 74.8457 21.5028C75.1374 21.6586 75.3627 21.8409 75.5218 22.0497C75.6842 22.2585 75.8102 22.4425 75.8997 22.6016H75.9892V18.8182H77.4757V29H76.024V27.8118H75.8997C75.8102 27.9742 75.6809 28.1598 75.5119 28.3686C75.3462 28.5774 75.1175 28.7597 74.8258 28.9155C74.5341 29.0713 74.1563 29.1491 73.6923 29.1491ZM74.0204 27.8814C74.448 27.8814 74.8092 27.7687 75.1042 27.5433C75.4025 27.3146 75.6279 26.9981 75.7804 26.5938C75.9361 26.1894 76.014 25.7187 76.014 25.1818C76.014 24.6515 75.9378 24.1875 75.7853 23.7898C75.6329 23.392 75.4091 23.0821 75.1142 22.8601C74.8192 22.638 74.4546 22.527 74.0204 22.527C73.573 22.527 73.2001 22.643 72.9018 22.875C72.6035 23.107 72.3781 23.4235 72.2257 23.8246C72.0765 24.2256 72.0019 24.678 72.0019 25.1818C72.0019 25.6922 72.0782 26.1513 72.2306 26.5589C72.3831 26.9666 72.6085 27.2898 72.9068 27.5284C73.2084 27.7637 73.5796 27.8814 74.0204 27.8814ZM84.6847 29.169C84.2008 29.169 83.7633 29.0795 83.3722 28.9006C82.9811 28.7183 82.6712 28.4548 82.4425 28.1101C82.2171 27.7654 82.1044 27.3428 82.1044 26.8423C82.1044 26.4115 82.1873 26.0568 82.353 25.7784C82.5187 25.5 82.7424 25.2796 83.0242 25.1172C83.3059 24.9548 83.6208 24.8321 83.9688 24.7493C84.3168 24.6664 84.6714 24.6035 85.0327 24.5604C85.4901 24.5073 85.8613 24.4643 86.1463 24.4311C86.4314 24.3946 86.6385 24.3366 86.7678 24.2571C86.897 24.1776 86.9617 24.0483 86.9617 23.8693V23.8345C86.9617 23.4003 86.839 23.0639 86.5938 22.8253C86.3518 22.5866 85.9905 22.4673 85.51 22.4673C85.0095 22.4673 84.6151 22.5784 84.3267 22.8004C84.0417 23.0192 83.8445 23.2628 83.7351 23.5312L82.3381 23.2131C82.5038 22.7491 82.7458 22.3745 83.0639 22.0895C83.3854 21.8011 83.755 21.5923 84.1726 21.4631C84.5902 21.3305 85.0294 21.2642 85.4901 21.2642C85.795 21.2642 86.1182 21.3007 86.4595 21.3736C86.8042 21.4432 87.1257 21.5724 87.424 21.7614C87.7256 21.9503 87.9726 22.2204 88.1648 22.5717C88.357 22.9197 88.4531 23.3722 88.4531 23.929V29H87.0014V27.956H86.9418C86.8457 28.1482 86.7015 28.3371 86.5092 28.5227C86.317 28.7083 86.0701 28.8625 85.7685 28.9851C85.4669 29.1077 85.1056 29.169 84.6847 29.169ZM85.0078 27.9759C85.4188 27.9759 85.7701 27.8946 86.0618 27.7322C86.3568 27.5698 86.5805 27.3577 86.733 27.0959C86.8887 26.8307 86.9666 26.5473 86.9666 26.2457V25.2614C86.9136 25.3144 86.8109 25.3641 86.6584 25.4105C86.5093 25.4536 86.3386 25.4917 86.1463 25.5249C85.9541 25.5547 85.7668 25.5829 85.5845 25.6094C85.4022 25.6326 85.2498 25.6525 85.1271 25.669C84.8388 25.7055 84.5753 25.7668 84.3367 25.853C84.1013 25.9392 83.9124 26.0634 83.7699 26.2259C83.6307 26.3849 83.5611 26.5971 83.5611 26.8622C83.5611 27.2301 83.697 27.5085 83.9688 27.6974C84.2405 27.883 84.5869 27.9759 85.0078 27.9759ZM101.636 18.8182V29H100.224L95.0482 21.5327H94.9537V29H93.4175V18.8182H94.8393L100.02 26.2955H100.114V18.8182H101.636ZM106.628 29.1541C105.876 29.1541 105.228 28.9934 104.684 28.6719C104.144 28.3471 103.727 27.8913 103.432 27.3047C103.14 26.7147 102.994 26.0237 102.994 25.2315C102.994 24.4493 103.14 23.7599 103.432 23.1634C103.727 22.5668 104.138 22.1011 104.665 21.7663C105.195 21.4316 105.815 21.2642 106.524 21.2642C106.955 21.2642 107.372 21.3355 107.777 21.478C108.181 21.6205 108.544 21.8442 108.866 22.1491C109.187 22.4541 109.441 22.8501 109.626 23.3374C109.812 23.8213 109.905 24.4096 109.905 25.1023V25.6293H103.834V24.5156H108.448C108.448 24.1245 108.368 23.7782 108.209 23.4766C108.05 23.1716 107.826 22.9313 107.538 22.7557C107.253 22.58 106.918 22.4922 106.534 22.4922C106.116 22.4922 105.752 22.5949 105.44 22.8004C105.132 23.0026 104.893 23.2678 104.724 23.5959C104.558 23.9207 104.476 24.2737 104.476 24.6548V25.5249C104.476 26.0353 104.565 26.4695 104.744 26.8274C104.926 27.1854 105.18 27.4588 105.505 27.6477C105.83 27.8333 106.209 27.9261 106.643 27.9261C106.925 27.9261 107.182 27.8864 107.414 27.8068C107.646 27.724 107.846 27.6013 108.015 27.4389C108.184 27.2765 108.314 27.076 108.403 26.8374L109.81 27.0909C109.697 27.5052 109.495 27.8681 109.204 28.1797C108.915 28.4879 108.552 28.7282 108.115 28.9006C107.681 29.0696 107.185 29.1541 106.628 29.1541ZM112.776 29L110.529 21.3636H112.065L113.561 26.9716H113.636L115.137 21.3636H116.674L118.165 26.9467H118.24L119.726 21.3636H121.262L119.02 29H117.504L115.953 23.4865H115.838L114.287 29H112.776ZM127.194 18.8182V29H125.657V18.8182H127.194ZM132.456 21.3636V22.5568H128.285V21.3636H132.456ZM129.404 19.5341H130.89V26.7578C130.89 27.0462 130.933 27.2633 131.019 27.4091C131.106 27.5516 131.217 27.6494 131.352 27.7024C131.492 27.7521 131.642 27.777 131.805 27.777C131.924 27.777 132.029 27.7687 132.118 27.7521C132.208 27.7356 132.277 27.7223 132.327 27.7124L132.595 28.9403C132.509 28.9735 132.387 29.0066 132.227 29.0398C132.068 29.0762 131.87 29.0961 131.631 29.0994C131.24 29.1061 130.875 29.0365 130.537 28.8906C130.199 28.7448 129.926 28.5194 129.717 28.2145C129.508 27.9096 129.404 27.5268 129.404 27.0661V19.5341ZM136.89 29.1541C136.137 29.1541 135.489 28.9934 134.946 28.6719C134.406 28.3471 133.988 27.8913 133.693 27.3047C133.401 26.7147 133.255 26.0237 133.255 25.2315C133.255 24.4493 133.401 23.7599 133.693 23.1634C133.988 22.5668 134.399 22.1011 134.926 21.7663C135.456 21.4316 136.076 21.2642 136.785 21.2642C137.216 21.2642 137.634 21.3355 138.038 21.478C138.442 21.6205 138.805 21.8442 139.127 22.1491C139.448 22.4541 139.702 22.8501 139.888 23.3374C140.073 23.8213 140.166 24.4096 140.166 25.1023V25.6293H134.096V24.5156H138.709C138.709 24.1245 138.63 23.7782 138.471 23.4766C138.312 23.1716 138.088 22.9313 137.799 22.7557C137.514 22.58 137.18 22.4922 136.795 22.4922C136.378 22.4922 136.013 22.5949 135.701 22.8004C135.393 23.0026 135.155 23.2678 134.986 23.5959C134.82 23.9207 134.737 24.2737 134.737 24.6548V25.5249C134.737 26.0353 134.826 26.4695 135.005 26.8274C135.188 27.1854 135.441 27.4588 135.766 27.6477C136.091 27.8333 136.47 27.9261 136.905 27.9261C137.186 27.9261 137.443 27.8864 137.675 27.8068C137.907 27.724 138.108 27.6013 138.277 27.4389C138.446 27.2765 138.575 27.076 138.665 26.8374L140.071 27.0909C139.959 27.5052 139.757 27.8681 139.465 28.1797C139.177 28.4879 138.814 28.7282 138.376 28.9006C137.942 29.0696 137.446 29.1541 136.89 29.1541ZM141.395 29V21.3636H142.822V22.6065H142.917C143.076 22.1856 143.336 21.8575 143.697 21.6222C144.058 21.3835 144.491 21.2642 144.995 21.2642C145.505 21.2642 145.933 21.3835 146.277 21.6222C146.625 21.8608 146.882 22.1889 147.048 22.6065H147.128C147.31 22.1989 147.6 21.8741 147.998 21.6321C148.395 21.3868 148.869 21.2642 149.419 21.2642C150.112 21.2642 150.677 21.4813 151.115 21.9155C151.556 22.3497 151.776 23.0043 151.776 23.8793V29H150.289V24.0185C150.289 23.5014 150.149 23.1269 149.867 22.8949C149.585 22.6629 149.249 22.5469 148.858 22.5469C148.374 22.5469 147.998 22.696 147.729 22.9943C147.461 23.2893 147.326 23.6688 147.326 24.1328V29H145.845V23.924C145.845 23.5097 145.716 23.1766 145.457 22.9247C145.199 22.6728 144.862 22.5469 144.448 22.5469C144.166 22.5469 143.906 22.6214 143.667 22.7706C143.432 22.9164 143.241 23.1203 143.096 23.3821C142.953 23.6439 142.882 23.9472 142.882 24.2919V29H141.395Z" fill="black"/>
</svg>
