<svg width="41" height="40" viewBox="0 0 41 40" fill="none" xmlns="http://www.w3.org/2000/svg">
<g filter="url(#filter0_d_1_479)">
<g filter="url(#filter1_b_1_479)">
<rect x="4.84998" width="32" height="32" rx="16" fill="black" fill-opacity="0.6"/>
<path d="M20.0169 15.8668C20.0169 16.2534 20.3303 16.5668 20.7169 16.5668C21.1035 16.5668 21.4169 16.2534 21.4169 15.8668C21.4169 15.4802 21.1035 15.1668 20.7169 15.1668C20.3303 15.1668 20.0169 15.4802 20.0169 15.8668Z" fill="white" stroke="white" stroke-width="1.16667" stroke-linecap="round" stroke-linejoin="round"/>
<path d="M25.8499 15.8668C25.8499 16.2534 26.1633 16.5668 26.5499 16.5668C26.9365 16.5668 27.2499 16.2534 27.2499 15.8668C27.2499 15.4802 26.9365 15.1668 26.5499 15.1668C26.1633 15.1668 25.8499 15.4802 25.8499 15.8668Z" fill="white" stroke="white" stroke-width="1.16667" stroke-linecap="round" stroke-linejoin="round"/>
<path d="M14.1834 15.8668C14.1834 16.2534 14.4968 16.5668 14.8834 16.5668C15.27 16.5668 15.5834 16.2534 15.5834 15.8668C15.5834 15.4802 15.27 15.1668 14.8834 15.1668C14.4968 15.1668 14.1834 15.4802 14.1834 15.8668Z" fill="white" stroke="white" stroke-width="1.16667" stroke-linecap="round" stroke-linejoin="round"/>
</g>
</g>
<defs>
<filter id="filter0_d_1_479" x="0.849976" y="0" width="40" height="40" filterUnits="userSpaceOnUse" color-interpolation-filters="sRGB">
<feFlood flood-opacity="0" result="BackgroundImageFix"/>
<feColorMatrix in="SourceAlpha" type="matrix" values="0 0 0 0 0 0 0 0 0 0 0 0 0 0 0 0 0 0 127 0" result="hardAlpha"/>
<feOffset dy="4"/>
<feGaussianBlur stdDeviation="2"/>
<feComposite in2="hardAlpha" operator="out"/>
<feColorMatrix type="matrix" values="0 0 0 0 0 0 0 0 0 0 0 0 0 0 0 0 0 0 0.25 0"/>
<feBlend mode="normal" in2="BackgroundImageFix" result="effect1_dropShadow_1_479"/>
<feBlend mode="normal" in="SourceGraphic" in2="effect1_dropShadow_1_479" result="shape"/>
</filter>
<filter id="filter1_b_1_479" x="-15.15" y="-20" width="72" height="72" filterUnits="userSpaceOnUse" color-interpolation-filters="sRGB">
<feFlood flood-opacity="0" result="BackgroundImageFix"/>
<feGaussianBlur in="BackgroundImageFix" stdDeviation="10"/>
<feComposite in2="SourceAlpha" operator="in" result="effect1_backgroundBlur_1_479"/>
<feBlend mode="normal" in="SourceGraphic" in2="effect1_backgroundBlur_1_479" result="shape"/>
</filter>
</defs>
</svg>
