<svg width="157" height="28" viewBox="0 0 157 28" fill="none" xmlns="http://www.w3.org/2000/svg">
<g filter="url(#filter0_b_1_483)">
<rect x="0.25" width="156" height="28" rx="14" fill="black" fill-opacity="0.4"/>
<rect x="0.25" width="156" height="28" rx="14" fill="#C25F30" fill-opacity="0.1"/>
<rect x="0.5" y="0.25" width="155.5" height="27.5" rx="13.75" stroke="#C25F30" stroke-width="0.5"/>
<path d="M13.548 19V8.81818H16.9883C17.7871 8.81818 18.44 8.96236 18.9471 9.25071C19.4576 9.53575 19.8354 9.92188 20.0807 10.4091C20.3259 10.8963 20.4486 11.4399 20.4486 12.0398C20.4486 12.6397 20.3259 13.1849 20.0807 13.6754C19.8387 14.166 19.4642 14.5571 18.9571 14.8487C18.45 15.1371 17.8004 15.2812 17.0082 15.2812H14.5423V14.1875H16.9684C17.5153 14.1875 17.9545 14.093 18.2859 13.9041C18.6174 13.7152 18.8577 13.46 19.0068 13.1385C19.1593 12.8137 19.2355 12.4474 19.2355 12.0398C19.2355 11.6321 19.1593 11.2675 19.0068 10.946C18.8577 10.6245 18.6157 10.3726 18.2809 10.1903C17.9462 10.0047 17.5021 9.91193 16.9486 9.91193H14.7809V19H13.548ZM24.9753 19.1591C24.2395 19.1591 23.6048 18.9967 23.0712 18.6719C22.5409 18.3438 22.1315 17.8864 21.8432 17.2997C21.5582 16.7098 21.4156 16.0237 21.4156 15.2415C21.4156 14.4593 21.5582 13.7699 21.8432 13.1733C22.1315 12.5734 22.5326 12.1061 23.0463 11.7713C23.5634 11.4332 24.1666 11.2642 24.856 11.2642C25.2537 11.2642 25.6465 11.3305 26.0342 11.4631C26.422 11.5956 26.775 11.8111 27.0932 12.1094C27.4114 12.4044 27.6649 12.7955 27.8538 13.2827C28.0428 13.7699 28.1372 14.3698 28.1372 15.0824V15.5795H22.2509V14.5653H26.944C26.944 14.1345 26.8579 13.75 26.6855 13.4119C26.5165 13.0739 26.2745 12.8071 25.9597 12.6115C25.6481 12.416 25.2802 12.3182 24.856 12.3182C24.3886 12.3182 23.9843 12.4342 23.6429 12.6662C23.3048 12.8949 23.0447 13.1932 22.8624 13.5611C22.6801 13.929 22.5889 14.3234 22.5889 14.7443V15.4205C22.5889 15.9972 22.6884 16.486 22.8872 16.8871C23.0894 17.2848 23.3695 17.5881 23.7274 17.7969C24.0854 18.0024 24.5013 18.1051 24.9753 18.1051C25.2835 18.1051 25.5619 18.062 25.8105 17.9759C26.0624 17.8864 26.2795 17.7538 26.4618 17.5781C26.6441 17.3991 26.785 17.1771 26.8844 16.9119L28.0179 17.2301C27.8986 17.6146 27.6981 17.9527 27.4163 18.2443C27.1346 18.5327 26.7866 18.758 26.3723 18.9205C25.958 19.0795 25.4923 19.1591 24.9753 19.1591ZM30.6753 14.4062V19H29.502V11.3636H30.6356V12.5568H30.735C30.914 12.169 31.1857 11.8575 31.5503 11.6222C31.9149 11.3835 32.3856 11.2642 32.9623 11.2642C33.4793 11.2642 33.9317 11.3703 34.3195 11.5824C34.7073 11.7912 35.0089 12.1094 35.2243 12.5369C35.4398 12.9612 35.5475 13.4981 35.5475 14.1477V19H34.3742V14.2273C34.3742 13.6274 34.2184 13.16 33.9069 12.8253C33.5953 12.4872 33.1677 12.3182 32.6242 12.3182C32.2497 12.3182 31.9149 12.3994 31.6199 12.5618C31.3283 12.7242 31.0979 12.9612 30.9289 13.2727C30.7598 13.5843 30.6753 13.9621 30.6753 14.4062ZM40.155 19.1591C39.5186 19.1591 38.9569 18.9983 38.4696 18.6768C37.9824 18.352 37.6013 17.8946 37.3262 17.3047C37.0511 16.7114 36.9135 16.0104 36.9135 15.2017C36.9135 14.3996 37.0511 13.7036 37.3262 13.1136C37.6013 12.5237 37.9841 12.0679 38.4746 11.7464C38.9651 11.425 39.5319 11.2642 40.1749 11.2642C40.6721 11.2642 41.0648 11.3471 41.3532 11.5128C41.6448 11.6752 41.8669 11.8608 42.0194 12.0696C42.1751 12.2751 42.2961 12.4441 42.3823 12.5767H42.4817V8.81818H43.655V19H42.5215V17.8267H42.3823C42.2961 17.9659 42.1735 18.1416 42.0144 18.3537C41.8553 18.5625 41.6283 18.7498 41.3333 18.9155C41.0383 19.0779 40.6455 19.1591 40.155 19.1591ZM40.3141 18.1051C40.7847 18.1051 41.1825 17.9825 41.5073 17.7372C41.8321 17.4886 42.079 17.1456 42.248 16.7081C42.4171 16.2673 42.5016 15.7585 42.5016 15.1818C42.5016 14.6117 42.4187 14.1129 42.253 13.6854C42.0873 13.2545 41.842 12.9197 41.5172 12.6811C41.1924 12.4392 40.7914 12.3182 40.3141 12.3182C39.8169 12.3182 39.4026 12.4458 39.0712 12.701C38.7431 12.9529 38.4962 13.2959 38.3304 13.7301C38.168 14.161 38.0868 14.6449 38.0868 15.1818C38.0868 15.7254 38.1697 16.2192 38.3354 16.6634C38.5044 17.1042 38.753 17.4555 39.0811 17.7173C39.4126 17.9759 39.8236 18.1051 40.3141 18.1051ZM45.5468 19V11.3636H46.7201V19H45.5468ZM46.1434 10.0909C45.9147 10.0909 45.7175 10.013 45.5518 9.85724C45.3894 9.70147 45.3082 9.5142 45.3082 9.29545C45.3082 9.0767 45.3894 8.88944 45.5518 8.73366C45.7175 8.57789 45.9147 8.5 46.1434 8.5C46.3721 8.5 46.5676 8.57789 46.73 8.73366C46.8958 8.88944 46.9786 9.0767 46.9786 9.29545C46.9786 9.5142 46.8958 9.70147 46.73 9.85724C46.5676 10.013 46.3721 10.0909 46.1434 10.0909ZM49.6224 14.4062V19H48.4491V11.3636H49.5826V12.5568H49.682C49.861 12.169 50.1328 11.8575 50.4974 11.6222C50.8619 11.3835 51.3326 11.2642 51.9093 11.2642C52.4263 11.2642 52.8787 11.3703 53.2665 11.5824C53.6543 11.7912 53.9559 12.1094 54.1714 12.5369C54.3868 12.9612 54.4945 13.4981 54.4945 14.1477V19H53.3212V14.2273C53.3212 13.6274 53.1654 13.16 52.8539 12.8253C52.5423 12.4872 52.1148 12.3182 51.5712 12.3182C51.1967 12.3182 50.8619 12.3994 50.567 12.5618C50.2753 12.7242 50.0449 12.9612 49.8759 13.2727C49.7069 13.5843 49.6224 13.9621 49.6224 14.4062ZM59.3009 22.0227C58.7341 22.0227 58.2469 21.9498 57.8393 21.804C57.4316 21.6615 57.0919 21.4725 56.8201 21.2372C56.5516 21.0052 56.3378 20.7566 56.1787 20.4915L57.1134 19.8352C57.2195 19.9744 57.3537 20.1335 57.5161 20.3125C57.6785 20.4948 57.9006 20.6522 58.1823 20.7848C58.4673 20.9207 58.8402 20.9886 59.3009 20.9886C59.9174 20.9886 60.4261 20.8395 60.8272 20.5412C61.2282 20.2429 61.4287 19.7756 61.4287 19.1392V17.5881H61.3293C61.2431 17.7273 61.1205 17.8996 60.9614 18.1051C60.8056 18.3073 60.5803 18.4879 60.2853 18.647C59.9936 18.8028 59.5992 18.8807 59.102 18.8807C58.4856 18.8807 57.9321 18.7348 57.4415 18.4432C56.9543 18.1515 56.5682 17.7273 56.2831 17.1705C56.0014 16.6136 55.8606 15.9375 55.8606 15.142C55.8606 14.3598 55.9981 13.6787 56.2732 13.0987C56.5483 12.5154 56.9311 12.0646 57.4216 11.7464C57.9122 11.425 58.4789 11.2642 59.1219 11.2642C59.6191 11.2642 60.0135 11.3471 60.3052 11.5128C60.6001 11.6752 60.8255 11.8608 60.9813 12.0696C61.1404 12.2751 61.263 12.4441 61.3492 12.5767H61.4685V11.3636H62.602V19.2188C62.602 19.875 62.4529 20.4086 62.1546 20.8196C61.8596 21.2339 61.4619 21.5372 60.9614 21.7294C60.4643 21.925 59.9107 22.0227 59.3009 22.0227ZM59.2611 17.8267C59.7318 17.8267 60.1295 17.719 60.4543 17.5036C60.7791 17.2881 61.026 16.9782 61.1951 16.5739C61.3641 16.1695 61.4486 15.6856 61.4486 15.1222C61.4486 14.572 61.3658 14.0864 61.2 13.6655C61.0343 13.2446 60.7891 12.9148 60.4643 12.6761C60.1394 12.4375 59.7384 12.3182 59.2611 12.3182C58.764 12.3182 58.3497 12.4441 58.0182 12.696C57.6901 12.9479 57.4432 13.286 57.2775 13.7102C57.1151 14.1345 57.0339 14.6051 57.0339 15.1222C57.0339 15.6525 57.1167 16.1214 57.2824 16.5291C57.4515 16.9335 57.7 17.2517 58.0282 17.4837C58.3596 17.7124 58.7706 17.8267 59.2611 17.8267ZM68.424 19H67.1314L70.87 8.81818H72.1427L75.8814 19H74.5887L71.5461 10.429H71.4666L68.424 19ZM68.9012 15.0227H74.1115V16.1165H68.9012V15.0227ZM76.8882 21.8636V11.3636H78.0217V12.5767H78.1609C78.2471 12.4441 78.3664 12.2751 78.5189 12.0696C78.6747 11.8608 78.8967 11.6752 79.1851 11.5128C79.4767 11.3471 79.8712 11.2642 80.3683 11.2642C81.0113 11.2642 81.5781 11.425 82.0686 11.7464C82.5591 12.0679 82.9419 12.5237 83.217 13.1136C83.4921 13.7036 83.6297 14.3996 83.6297 15.2017C83.6297 16.0104 83.4921 16.7114 83.217 17.3047C82.9419 17.8946 82.5608 18.352 82.0736 18.6768C81.5864 18.9983 81.0246 19.1591 80.3882 19.1591C79.8977 19.1591 79.5049 19.0779 79.2099 18.9155C78.915 18.7498 78.6879 18.5625 78.5288 18.3537C78.3697 18.1416 78.2471 17.9659 78.1609 17.8267H78.0615V21.8636H76.8882ZM78.0416 15.1818C78.0416 15.7585 78.1261 16.2673 78.2952 16.7081C78.4642 17.1456 78.7111 17.4886 79.0359 17.7372C79.3607 17.9825 79.7585 18.1051 80.2291 18.1051C80.7196 18.1051 81.129 17.9759 81.4571 17.7173C81.7885 17.4555 82.0371 17.1042 82.2028 16.6634C82.3719 16.2192 82.4564 15.7254 82.4564 15.1818C82.4564 14.6449 82.3735 14.161 82.2078 13.7301C82.0454 13.2959 81.7985 12.9529 81.467 12.701C81.1389 12.4458 80.7263 12.3182 80.2291 12.3182C79.7518 12.3182 79.3508 12.4392 79.026 12.6811C78.7012 12.9197 78.4559 13.2545 78.2902 13.6854C78.1245 14.1129 78.0416 14.6117 78.0416 15.1818ZM84.9995 21.8636V11.3636H86.133V12.5767H86.2722C86.3584 12.4441 86.4777 12.2751 86.6301 12.0696C86.7859 11.8608 87.008 11.6752 87.2963 11.5128C87.588 11.3471 87.9824 11.2642 88.4796 11.2642C89.1226 11.2642 89.6893 11.425 90.1799 11.7464C90.6704 12.0679 91.0532 12.5237 91.3283 13.1136C91.6034 13.7036 91.7409 14.3996 91.7409 15.2017C91.7409 16.0104 91.6034 16.7114 91.3283 17.3047C91.0532 17.8946 90.672 18.352 90.1848 18.6768C89.6976 18.9983 89.1358 19.1591 88.4995 19.1591C88.0089 19.1591 87.6162 19.0779 87.3212 18.9155C87.0262 18.7498 86.7992 18.5625 86.6401 18.3537C86.481 18.1416 86.3584 17.9659 86.2722 17.8267H86.1727V21.8636H84.9995ZM86.1529 15.1818C86.1529 15.7585 86.2374 16.2673 86.4064 16.7081C86.5754 17.1456 86.8224 17.4886 87.1472 17.7372C87.472 17.9825 87.8697 18.1051 88.3404 18.1051C88.8309 18.1051 89.2402 17.9759 89.5683 17.7173C89.8998 17.4555 90.1484 17.1042 90.3141 16.6634C90.4831 16.2192 90.5676 15.7254 90.5676 15.1818C90.5676 14.6449 90.4848 14.161 90.3191 13.7301C90.1567 13.2959 89.9097 12.9529 89.5783 12.701C89.2502 12.4458 88.8375 12.3182 88.3404 12.3182C87.8631 12.3182 87.462 12.4392 87.1372 12.6811C86.8124 12.9197 86.5672 13.2545 86.4014 13.6854C86.2357 14.1129 86.1529 14.6117 86.1529 15.1818ZM93.1107 19V11.3636H94.2442V12.517H94.3238C94.463 12.1392 94.7149 11.8326 95.0794 11.5973C95.444 11.362 95.855 11.2443 96.3124 11.2443C96.3986 11.2443 96.5063 11.246 96.6356 11.2493C96.7648 11.2526 96.8626 11.2576 96.9289 11.2642V12.4574C96.8891 12.4474 96.798 12.4325 96.6554 12.4126C96.5162 12.3894 96.3687 12.3778 96.213 12.3778C95.8418 12.3778 95.5103 12.4557 95.2187 12.6115C94.9303 12.764 94.7016 12.9761 94.5326 13.2479C94.3669 13.5163 94.284 13.8229 94.284 14.1676V19H93.1107ZM100.77 19.1591C100.08 19.1591 99.4753 18.995 98.9549 18.6669C98.4379 18.3388 98.0335 17.8797 97.7418 17.2898C97.4535 16.6998 97.3093 16.0104 97.3093 15.2216C97.3093 14.4261 97.4535 13.7318 97.7418 13.1385C98.0335 12.5452 98.4379 12.0845 98.9549 11.7564C99.4753 11.4283 100.08 11.2642 100.77 11.2642C101.459 11.2642 102.062 11.4283 102.579 11.7564C103.1 12.0845 103.504 12.5452 103.792 13.1385C104.084 13.7318 104.23 14.4261 104.23 15.2216C104.23 16.0104 104.084 16.6998 103.792 17.2898C103.504 17.8797 103.1 18.3388 102.579 18.6669C102.062 18.995 101.459 19.1591 100.77 19.1591ZM100.77 18.1051C101.293 18.1051 101.724 17.9709 102.062 17.7024C102.4 17.4339 102.65 17.081 102.813 16.6435C102.975 16.206 103.056 15.732 103.056 15.2216C103.056 14.7112 102.975 14.2356 102.813 13.7947C102.65 13.3539 102.4 12.9976 102.062 12.7259C101.724 12.4541 101.293 12.3182 100.77 12.3182C100.246 12.3182 99.815 12.4541 99.4769 12.7259C99.1389 12.9976 98.8886 13.3539 98.7262 13.7947C98.5638 14.2356 98.4826 14.7112 98.4826 15.2216C98.4826 15.732 98.5638 16.206 98.7262 16.6435C98.8886 17.081 99.1389 17.4339 99.4769 17.7024C99.815 17.9709 100.246 18.1051 100.77 18.1051ZM111.572 11.3636L108.748 19H107.555L104.731 11.3636H106.003L108.111 17.4489H108.191L110.299 11.3636H111.572ZM114.715 19.179C114.231 19.179 113.792 19.0878 113.398 18.9055C113.003 18.7199 112.69 18.4531 112.458 18.1051C112.226 17.7538 112.11 17.3295 112.11 16.8324C112.11 16.3949 112.196 16.0402 112.368 15.7685C112.541 15.4934 112.771 15.2779 113.06 15.1222C113.348 14.9664 113.666 14.8504 114.014 14.7741C114.365 14.6946 114.718 14.6316 115.073 14.5852C115.537 14.5256 115.913 14.4808 116.202 14.451C116.493 14.4179 116.705 14.3632 116.838 14.2869C116.974 14.2107 117.042 14.0781 117.042 13.8892V13.8494C117.042 13.3589 116.908 12.9777 116.639 12.706C116.374 12.4342 115.971 12.2983 115.431 12.2983C114.871 12.2983 114.432 12.4209 114.113 12.6662C113.795 12.9115 113.572 13.1733 113.442 13.4517L112.329 13.054C112.528 12.59 112.793 12.2287 113.124 11.9702C113.459 11.7083 113.823 11.526 114.218 11.4233C114.616 11.3172 115.007 11.2642 115.391 11.2642C115.636 11.2642 115.918 11.294 116.236 11.3537C116.558 11.41 116.868 11.5277 117.166 11.7067C117.468 11.8857 117.718 12.1558 117.917 12.517C118.116 12.8783 118.215 13.3622 118.215 13.9688V19H117.042V17.9659H116.982C116.903 18.1316 116.77 18.3089 116.584 18.4979C116.399 18.6868 116.152 18.8475 115.844 18.9801C115.535 19.1127 115.159 19.179 114.715 19.179ZM114.894 18.125C115.358 18.125 115.749 18.0339 116.067 17.8516C116.389 17.6693 116.631 17.4339 116.793 17.1456C116.959 16.8572 117.042 16.554 117.042 16.2358V15.1619C116.992 15.2216 116.883 15.2763 116.714 15.326C116.548 15.3724 116.356 15.4138 116.137 15.4503C115.921 15.4834 115.711 15.5133 115.506 15.5398C115.303 15.563 115.139 15.5829 115.013 15.5994C114.708 15.6392 114.423 15.7038 114.158 15.7933C113.896 15.8795 113.684 16.0104 113.522 16.1861C113.363 16.3584 113.283 16.5937 113.283 16.892C113.283 17.2997 113.434 17.608 113.736 17.8168C114.041 18.0223 114.427 18.125 114.894 18.125ZM121.11 8.81818V19H119.937V8.81818H121.11Z" fill="white"/>
<path d="M132.25 12L136.25 16L140.25 12" stroke="white" stroke-width="0.533333" stroke-linecap="round" stroke-linejoin="round"/>
</g>
<defs>
<filter id="filter0_b_1_483" x="-4.75" y="-5" width="166" height="38" filterUnits="userSpaceOnUse" color-interpolation-filters="sRGB">
<feFlood flood-opacity="0" result="BackgroundImageFix"/>
<feGaussianBlur in="BackgroundImageFix" stdDeviation="2.5"/>
<feComposite in2="SourceAlpha" operator="in" result="effect1_backgroundBlur_1_483"/>
<feBlend mode="normal" in="SourceGraphic" in2="effect1_backgroundBlur_1_483" result="shape"/>
</filter>
</defs>
</svg>
